Coordinates
version=1
nRows=13
nColumns=36
inDegrees=yes

Units are S.I. units (second, meters, Newtons, ...)
If the header above contains a line with 'inDegrees', this indicates whether rotational values are in degrees (yes) or radians (no).

endheader
time	pelvis_tilt	pelvis_list	pelvis_rotation	pelvis_tx	pelvis_ty	pelvis_tz	hip_flexion_r	hip_adduction_r	hip_rotation_r	knee_angle_r	knee_angle_r_beta	ankle_angle_r	subtalar_angle_r	mtp_angle_r	hip_flexion_l	hip_adduction_l	hip_rotation_l	knee_angle_l	knee_angle_l_beta	ankle_angle_l	subtalar_angle_l	mtp_angle_l	lumbar_extension	lumbar_bending	lumbar_rotation	arm_flex_r	arm_add_r	arm_rot_r	elbow_flex_r	pro_sup_r	arm_flex_l	arm_add_l	arm_rot_l	elbow_flex_l	pro_sup_l
      0.00000000	     -4.07132609	     -0.55224103	      5.62394348	     -0.03043044	      0.92621753	     -0.17686695	     29.16733598	      2.57226722	     -7.37009900	      6.07053711	      0.10595086	     -4.71988855	    -12.23330372	     -5.35781755	    -12.00269590	      1.93376219	     -6.70055455	     12.04682892	      0.21025683	     18.52595414	      4.62764705	     -5.35781755	      0.21710322	     -1.97772587	    -12.53737201	     -3.86214564	     -2.91022106	    -18.11498778	     28.23319843	    100.74640342	     21.25564279	    -11.37843166	    -10.92755413	     58.69311324	    105.39014906
      0.01000000	     -3.70105436	     -1.33707725	      5.78353439	     -0.01678221	      0.92747067	     -0.17636171	     28.57999967	      3.31260529	     -8.09142806	      7.16104804	      0.12498387	     -5.14073792	    -12.93922868	     -5.38110896	    -12.24970344	      0.75214226	     -6.79701666	     13.69003120	      0.23893612	     17.46898127	      4.02655769	     -5.38110896	     -0.04633299	     -0.94481023	    -12.45560608	     -3.78492838	     -3.10008210	    -18.25912807	     28.12817001	    100.73642123	     20.86104054	    -10.90418796	    -10.84552100	     59.05440672	    105.50292414
      0.02000000	     -3.42157646	     -2.07865374	      5.97719292	     -0.00314785	      0.92861644	     -0.17584771	     28.01824995	      4.04828283	     -8.38362485	      8.07181600	      0.14087977	     -6.52414949	    -14.72099584	     -5.49180108	    -12.38250380	     -0.32262948	     -6.36303213	     15.30915074	      0.26719509	     15.93197080	      2.58061047	     -5.49180108	     -0.19430406	      0.03208597	    -12.60966024	     -3.59675796	     -3.20090523	    -18.58527093	     28.03276866	    100.77643758	     20.17147463	    -10.46697785	    -11.20373578	     59.70870229	    105.86642224
      0.03000000	     -3.05689106	     -2.76862843	      6.16655375	      0.01054324	      0.92990875	     -0.17521729	     27.39220686	      4.73396279	     -8.99938597	      9.07921448	      0.15846219	     -6.86984541	    -15.43619238	     -5.51685100	    -12.40441761	     -1.45822683	     -6.35997939	     17.29479522	      0.30185112	     14.60019880	      1.98336473	     -5.51685100	     -0.43461228	      0.92761875	    -12.49606608	     -3.52123583	     -3.31880416	    -18.65326078	     27.95761871	    100.78140527	     19.70711904	    -10.03079081	    -10.99368966	     59.98422392	    105.98069683
      0.04000000	     -2.76095976	     -3.37757512	      6.36117965	      0.02424690	      0.93116514	     -0.17446846	     26.79792810	      5.37884737	     -9.45329386	     10.01977113	      0.17487800	     -7.32278242	    -16.34900871	     -5.54862802	    -12.17498108	     -2.51303612	     -6.12653228	     19.53639977	      0.34097450	     12.90000801	      1.04229811	     -5.54862802	     -0.57288208	      1.70499705	    -12.41412164	     -3.42881903	     -3.41115947	    -18.77453221	     27.91286822	    100.78550837	     19.07344247	     -9.67764915	    -10.82808517	     60.30660994	    106.11695262
      0.05000000	     -2.41089246	     -3.82161054	      6.54659103	      0.03779857	      0.93258967	     -0.17356358	     26.09027751	      5.92446248	     -9.70792668	     10.88320671	      0.18994779	     -7.38379697	    -17.15848538	     -5.56991417	    -11.77235090	     -3.43733305	     -5.84101200	     22.14813585	      0.38655789	     11.03794771	      0.27038572	     -5.56991417	     -0.84138700	      2.26377503	    -12.17919095	     -3.32212329	     -3.40762444	    -18.83348215	     27.86087007	    100.78722947	     18.51873430	     -9.29334288	    -10.57762588	     60.56598145	    106.22341787
      0.06000000	     -2.33605242	     -4.13199209	      6.70781091	      0.05117906	      0.93373084	     -0.17252052	     25.69347206	      6.35636857	     -9.65456812	     11.79982978	      0.20594588	     -7.79242773	    -18.51007647	     -5.64044219	    -10.87638454	     -4.10894701	     -5.03471442	     24.95315782	      0.43551476	      8.16472655	     -1.82500702	     -5.64044219	     -0.76263748	      2.62979489	    -11.98335568	     -3.21692264	     -3.34524120	    -18.98633060	     27.84016814	    100.79928862	     17.74258298	     -9.05747013	    -10.24498759	     60.75600821	    106.45072243
      0.07000000	     -2.09539737	     -4.42833165	      6.83518910	      0.06445454	      0.93507512	     -0.17125035	     25.07239818	      6.84511296	     -9.68348102	     12.65535035	      0.22087753	     -7.45992975	    -19.29994353	     -5.70133140	     -9.92143001	     -4.92336114	     -4.70050957	     28.11670823	      0.49072913	      5.50854147	     -2.80699855	     -5.70133140	     -0.91489138	      2.96577461	    -11.58676702	     -3.08989786	     -3.27304330	    -19.00323430	     27.85095204	    100.80982375	     17.11185952	     -8.81400236	     -9.72418753	     60.74805588	    106.62009284
      0.08000000	     -1.85675250	     -4.70360964	      6.94959660	      0.07755761	      0.93636600	     -0.16983100	     24.41899420	      7.34434102	     -9.72515273	     13.45613905	      0.23485393	     -6.82276611	    -19.93021727	     -5.74183163	     -8.75740660	     -5.78241728	     -4.45582152	     31.52190561	      0.55016104	      2.75417380	     -3.45318959	     -5.74183163	     -1.08375277	      3.25378252	    -11.12519932	     -2.92428658	     -3.16501328	    -18.97894857	     27.87623368	    100.80993986	     16.47124021	     -8.59031545	     -9.16255515	     60.67589005	    106.72730759
      0.09000000	     -1.62261226	     -4.94613318	      7.02665555	      0.09035295	      0.93760689	     -0.16832938	     23.73481250	      7.83739701	     -9.72673186	     14.18803114	      0.24762786	     -6.05842201	    -20.47443592	     -5.76971699	     -7.41761911	     -6.61072028	     -4.16579935	     35.09159954	      0.61246395	     -0.09253098	     -3.95891220	     -5.76971699	     -1.29296209	      3.49249592	    -10.57907318	     -2.70085475	     -3.05740410	    -18.91749304	     27.91861649	    100.80860685	     15.85305266	     -8.38930694	     -8.58838519	     60.52541242	    106.79939794
      0.10000000	     -1.49450839	     -5.15774287	      7.07542498	      0.10284574	      0.93863865	     -0.16680964	     23.13737025	      8.29768991	     -9.73112648	     14.85686921	      0.25930128	     -5.22500924	    -20.89948023	     -5.80040978	     -5.81553354	     -7.36267045	     -3.78628248	     38.73244420	      0.67600868	     -3.12443967	     -4.71195819	     -5.80040978	     -1.39381819	      3.67877476	     -9.98031234	     -2.43274655	     -2.94206003	    -18.81453436	     27.99994103	    100.80627051	     15.22845342	     -8.18561915	     -7.91171698	     60.21351658	    106.86045643
      0.11000000	     -1.31907308	     -5.40141704	      7.10312938	      0.11509128	      0.93965152	     -0.16535116	     22.41744371	      8.79476927	     -9.76706585	     15.36722566	      0.26820868	     -4.34210575	    -21.21429533	     -5.82628091	     -4.17024342	     -8.14268610	     -3.41939278	     42.37822380	      0.73963954	     -5.86382971	     -5.33532134	     -5.82628091	     -1.59347992	      3.91368649	     -9.28432870	     -2.12605671	     -2.88167635	    -18.68026347	     28.07634139	    100.80660706	     14.66043922	     -7.97851607	     -7.30688556	     59.84548782	    106.90014304
      0.12000000	     -1.24825854	     -5.55210145	      7.08042924	      0.12692472	      0.94046233	     -0.16405443	     21.82066130	      9.14295878	     -9.88179489	     15.90605104	      0.27761296	     -3.32874754	    -21.06670516	     -5.89269276	     -2.35285319	     -8.67621487	     -2.93271554	     45.92650267	      0.80156869	     -8.62520427	     -6.78699766	     -5.89269276	     -1.69662476	      4.04725286	     -8.47686864	     -1.77915868	     -2.85794016	    -18.45119321	     28.21402838	    100.79239648	     14.17659878	     -7.74489401	     -6.48272110	     59.14522930	    106.94209106
